<svg width="44" height="44" viewBox="0 0 44 44" fill="none" xmlns="http://www.w3.org/2000/svg">
<path d="M24.8812 22C28.026 24.307 32.6216 28.3443 32.6216 32.2056V37.8757H11.3726V32.2092C11.3726 28.3479 15.9747 24.3106 19.1195 22.0036C15.9747 19.6965 11.3726 15.6592 11.3726 11.7979V6.12433H32.6216V11.7968C32.6216 15.6569 28.026 19.6948 24.8812 22Z" fill="#EEEFEE"/>
<path d="M24.8775 22C28.0229 24.307 32.6191 28.3443 32.6191 32.2092V37.8757H30.8354V32.2092C30.8354 28.3443 26.2392 24.307 23.0938 22C26.2392 19.693 30.8354 15.6557 30.8354 11.7968V6.12433H32.6191V11.7968C32.6191 15.6557 28.0229 19.693 24.8775 22Z" fill="#E1E6E9"/>
<path d="M15.5962 12.6274V12.9247C15.5962 16.4602 22 20.2418 22 20.2418C22 20.2418 28.4038 16.4602 28.4038 12.9235V12.6262L15.5962 12.6274Z" fill="#FE7058"/>
<path d="M21.9999 20.5391C21.9468 20.5391 21.8946 20.525 21.8489 20.498C21.5837 20.3399 15.2988 16.5892 15.2988 12.9235V12.6262C15.2988 12.5474 15.3302 12.4717 15.3859 12.416C15.4417 12.3602 15.5173 12.3289 15.5961 12.3289H28.4037C28.4825 12.3289 28.5581 12.3602 28.6139 12.416C28.6697 12.4717 28.701 12.5474 28.701 12.6262V12.9235C28.701 16.5874 22.4191 20.3399 22.1509 20.498C22.1052 20.525 22.053 20.5391 21.9999 20.5391V20.5391ZM15.8934 12.9247C15.8934 15.9571 21.0438 19.2993 21.9999 19.8933C22.9554 19.2987 28.1052 15.9571 28.1064 12.9247H15.8934Z" fill="#323C6B"/>
<path d="M35.2791 3.95405C35.2603 4.54776 35.0067 5.10976 34.574 5.51665C34.1412 5.92355 33.5647 6.1421 32.9709 6.12432H11.0304C10.4366 6.1421 9.8601 5.92355 9.42734 5.51665C8.99458 5.10976 8.74096 4.54776 8.72217 3.95405C8.74097 3.36065 8.99434 2.79893 9.42671 2.39208C9.85908 1.98524 10.4352 1.76647 11.0286 1.78378H32.9691C33.5632 1.76551 34.1402 1.98384 34.5733 2.39079C35.0065 2.79774 35.2603 3.36001 35.2791 3.95405V3.95405Z" fill="#9297AB"/>
<path d="M35.279 40.0459C35.2602 40.6395 35.0067 41.2014 34.5741 41.6083C34.1414 42.0152 33.5651 42.2338 32.9714 42.2162H11.0309C10.4371 42.234 9.86059 42.0154 9.42783 41.6085C8.99507 41.2016 8.74145 40.6396 8.72266 40.0459C8.74145 39.4522 8.99507 38.8902 9.42783 38.4833C9.86059 38.0764 10.4371 37.8579 11.0309 37.8757H32.9714C33.5651 37.858 34.1414 38.0767 34.5741 38.4835C35.0067 38.8904 35.2602 39.4523 35.279 40.0459V40.0459Z" fill="#9297AB"/>
<path d="M35.2771 3.95405C35.2684 4.24813 35.2018 4.5376 35.0811 4.80591C34.9604 5.07421 34.788 5.31608 34.5737 5.51767C34.3594 5.71925 34.1075 5.87659 33.8323 5.98069C33.5571 6.08479 33.2641 6.1336 32.9701 6.12433H31.002C31.5956 6.1421 32.172 5.92352 32.6046 5.51659C33.0371 5.10966 33.2905 4.54766 33.309 3.95405C33.2905 3.36045 33.0371 2.79845 32.6046 2.39152C32.172 1.98459 31.5956 1.766 31.002 1.78378H32.9701C33.2641 1.77451 33.5571 1.82331 33.8323 1.92741C34.1075 2.03151 34.3594 2.18886 34.5737 2.39044C34.788 2.59203 34.9604 2.83389 35.0811 3.1022C35.2018 3.3705 35.2684 3.65998 35.2771 3.95405V3.95405Z" fill="#84879C"/>
<path d="M35.2771 40.0459C35.2684 40.34 35.2018 40.6295 35.0811 40.8978C34.9604 41.1661 34.788 41.408 34.5737 41.6095C34.3594 41.8111 34.1075 41.9685 33.8323 42.0726C33.5571 42.1767 33.2641 42.2255 32.9701 42.2162H31.002C31.2983 42.2346 31.5952 42.1921 31.8744 42.0913C32.1537 41.9905 32.4094 41.8337 32.6257 41.6303C32.842 41.427 33.0144 41.1815 33.1322 40.909C33.2501 40.6366 33.3109 40.3428 33.3109 40.0459C33.3109 39.7491 33.2501 39.4553 33.1322 39.1828C33.0144 38.9104 32.842 38.6649 32.6257 38.4616C32.4094 38.2582 32.1537 38.1013 31.8744 38.0006C31.5952 37.8998 31.2983 37.8573 31.002 37.8757H32.9701C33.2641 37.8664 33.5571 37.9152 33.8323 38.0193C34.1075 38.1234 34.3594 38.2807 34.5737 38.4823C34.788 38.6839 34.9604 38.9258 35.0811 39.1941C35.2018 39.4624 35.2684 39.7519 35.2771 40.0459V40.0459Z" fill="#84879C"/>
<path d="M13.6758 37.8757H30.3244V36.1829C30.3244 31.5843 22.0001 26.6694 22.0001 26.6694C22.0001 26.6694 13.6758 31.5866 13.6758 36.1829V37.8757Z" fill="#FE7058"/>
<path d="M30.3244 38.173H13.6757C13.5969 38.173 13.5212 38.1417 13.4655 38.0859C13.4097 38.0302 13.3784 37.9545 13.3784 37.8757V36.1829C13.3784 31.4689 21.5047 26.6158 21.8508 26.4113C21.8965 26.3843 21.9487 26.3701 22.0018 26.3701C22.0549 26.3701 22.1071 26.3843 22.1528 26.4113C22.4989 26.6158 30.6252 31.4689 30.6252 36.1829V37.8757C30.6252 37.915 30.6174 37.954 30.6022 37.9903C30.5871 38.0266 30.5649 38.0595 30.5369 38.0872C30.5089 38.1148 30.4757 38.1367 30.4392 38.1514C30.4027 38.1661 30.3637 38.1735 30.3244 38.173V38.173ZM13.973 37.5784H30.0271V36.1829C30.0271 32.1396 23.1155 27.7051 22 27.0154C20.8828 27.7081 13.973 32.1402 13.973 36.1829V37.5784Z" fill="#323C6B"/>
<path d="M10.7158 15.7942C10.7634 15.8816 10.8199 15.9673 10.8692 16.0547Z" fill="#EEEFEE"/>
<path d="M10.8693 16.3514C10.817 16.3514 10.7655 16.3376 10.7202 16.3114C10.6749 16.2852 10.6373 16.2475 10.6113 16.2021L10.5518 16.0993C10.5185 16.0451 10.4858 15.991 10.4561 15.9363C10.4184 15.867 10.4098 15.7856 10.4321 15.7099C10.4545 15.6343 10.506 15.5706 10.5753 15.5329C10.6446 15.4952 10.726 15.4866 10.8017 15.509C10.8773 15.5313 10.941 15.5828 10.9787 15.6521C11.0037 15.6985 11.0316 15.7437 11.0596 15.7895L11.1291 15.9084C11.1551 15.9536 11.1687 16.0049 11.1686 16.057C11.1685 16.1092 11.1547 16.1604 11.1286 16.2055C11.1024 16.2506 11.0649 16.2881 11.0197 16.3141C10.9745 16.3401 10.9232 16.3538 10.8711 16.3537L10.8693 16.3514Z" fill="#323C6B"/>
<path d="M9.58838 10.2074V11.7962C9.59936 12.7066 9.77377 13.6076 10.1033 14.4564" fill="#EEEFEE"/>
<path d="M10.1036 14.7537C10.0429 14.7537 9.98369 14.7353 9.93385 14.7007C9.884 14.6662 9.84591 14.6172 9.82469 14.5604C9.48283 13.6783 9.30159 12.7421 9.28955 11.7961V10.2074C9.28955 10.1285 9.32087 10.0529 9.37663 9.99717C9.43238 9.94142 9.508 9.9101 9.58685 9.9101C9.6657 9.9101 9.74131 9.94142 9.79707 9.99717C9.85282 10.0529 9.88415 10.1285 9.88415 10.2074V11.7961C9.89591 12.6712 10.0641 13.5371 10.3806 14.3529C10.3974 14.3979 10.4031 14.4463 10.3971 14.494C10.3911 14.5416 10.3737 14.5871 10.3463 14.6266C10.3189 14.666 10.2823 14.6983 10.2397 14.7205C10.1971 14.7427 10.1498 14.7543 10.1018 14.7543L10.1036 14.7537Z" fill="#323C6B"/>
<path d="M31.933 26.1622C31.8605 26.0682 31.7826 25.9767 31.7041 25.8851Z" fill="#EEEFEE"/>
<path d="M31.9332 26.4595C31.8874 26.4599 31.842 26.4497 31.8008 26.4297C31.7595 26.4097 31.7235 26.3804 31.6954 26.3441C31.6258 26.2543 31.5509 26.1657 31.476 26.0777C31.449 26.0483 31.4283 26.0137 31.415 25.9761C31.4017 25.9385 31.3961 25.8986 31.3985 25.8587C31.401 25.8189 31.4114 25.78 31.4292 25.7443C31.447 25.7086 31.4718 25.6768 31.5022 25.6509C31.5325 25.625 31.5678 25.6054 31.6058 25.5934C31.6439 25.5814 31.684 25.5772 31.7237 25.581C31.7634 25.5848 31.802 25.5966 31.8371 25.6157C31.8721 25.6347 31.903 25.6606 31.9279 25.6918C32.0099 25.787 32.0902 25.8827 32.1657 25.9802C32.1999 26.0244 32.2209 26.0772 32.2264 26.1328C32.232 26.1884 32.2217 26.2443 32.1969 26.2943C32.1721 26.3444 32.1337 26.3864 32.0861 26.4156C32.0385 26.4448 31.9837 26.46 31.9279 26.4595H31.9332Z" fill="#323C6B"/>
<path d="M34.3592 31.4683C34.1625 30.0314 33.6427 28.6578 32.8389 27.4506Z" fill="#EEEFEE"/>
<path d="M34.3587 31.765C34.2852 31.7655 34.2141 31.7387 34.1592 31.6898C34.1043 31.6409 34.0695 31.5735 34.0614 31.5004C33.8692 30.1085 33.3647 28.7781 32.5856 27.6088C32.5631 27.5758 32.5476 27.5386 32.5398 27.4994C32.5321 27.4602 32.5323 27.4199 32.5405 27.3808C32.5487 27.3417 32.5646 27.3047 32.5874 27.2719C32.6102 27.2391 32.6394 27.2113 32.6732 27.19C32.707 27.1688 32.7448 27.1545 32.7842 27.1482C32.8236 27.1418 32.8639 27.1435 32.9027 27.153C32.9414 27.1626 32.9779 27.1799 33.0098 27.2038C33.0418 27.2278 33.0686 27.2579 33.0886 27.2925C33.9164 28.5376 34.4513 29.9541 34.653 31.4356C34.6573 31.4744 34.6539 31.5137 34.643 31.5512C34.6321 31.5887 34.614 31.6237 34.5896 31.6542C34.5652 31.6846 34.535 31.71 34.5008 31.7288C34.4666 31.7476 34.429 31.7595 34.3902 31.7638L34.3587 31.765Z" fill="#323C6B"/>
<path d="M32.6215 38.173H11.3725C11.2936 38.173 11.218 38.1416 11.1623 38.0859C11.1065 38.0301 11.0752 37.9545 11.0752 37.8757V32.2092C11.0752 28.4632 15.1018 24.6329 18.62 22.0036C15.103 19.3719 11.0752 15.5427 11.0752 11.7956V6.12432C11.0752 6.04548 11.1065 5.96986 11.1623 5.9141C11.218 5.85835 11.2936 5.82703 11.3725 5.82703H32.6215C32.7004 5.82703 32.776 5.85835 32.8317 5.9141C32.8875 5.96986 32.9188 6.04548 32.9188 6.12432V11.7968C32.9188 15.5475 28.8952 19.3749 25.3799 22.0024C28.8976 24.6287 32.9188 28.4561 32.9188 32.2074V37.8757C32.9188 37.9545 32.8875 38.0301 32.8317 38.0859C32.776 38.1416 32.7004 38.173 32.6215 38.173ZM11.6698 37.5784H32.3242V32.2092C32.3242 28.4038 27.5508 24.3308 24.7051 22.2432C24.6674 22.2156 24.6367 22.1795 24.6155 22.1378C24.5944 22.0961 24.5834 22.05 24.5834 22.0033C24.5834 21.9565 24.5944 21.9104 24.6155 21.8688C24.6367 21.8271 24.6674 21.791 24.7051 21.7634C27.5508 19.6763 32.3242 15.6057 32.3242 11.7974V6.42162H11.6698V11.7968C11.6698 15.6022 16.4474 19.6734 19.2955 21.7628C19.3332 21.7904 19.3639 21.8265 19.385 21.8682C19.4062 21.9098 19.4172 21.9559 19.4172 22.0027C19.4172 22.0494 19.4062 22.0955 19.385 22.1372C19.3639 22.1789 19.3332 22.215 19.2955 22.2426C16.4474 24.332 11.6698 28.4044 11.6698 32.2086V37.5784Z" fill="#323C6B"/>
<path d="M32.9709 6.4216H11.0303C10.358 6.43856 9.70627 6.18842 9.21793 5.72594C8.7296 5.26346 8.44441 4.62632 8.4248 3.95403C8.44441 3.28195 8.72944 2.64501 9.21751 2.18256C9.70559 1.72011 10.357 1.46983 11.0291 1.48647H32.9697C33.642 1.46951 34.2937 1.71965 34.7821 2.18213C35.2704 2.64461 35.5556 3.28174 35.5752 3.95403C35.5556 4.62611 35.2706 5.26306 34.7825 5.72551C34.2944 6.18795 33.643 6.43824 32.9709 6.4216ZM11.0303 2.08106C10.5156 2.06387 10.015 2.2513 9.63811 2.60232C9.26124 2.95334 9.03877 3.43937 9.0194 3.95403C9.03877 4.46848 9.26108 4.95433 9.63769 5.30532C10.0143 5.65631 10.5146 5.84388 11.0291 5.82701H32.9697C33.4844 5.8442 33.985 5.65677 34.3619 5.30575C34.7388 4.95473 34.9612 4.4687 34.9806 3.95403C34.9612 3.43958 34.7389 2.95374 34.3623 2.60275C33.9857 2.25176 33.4854 2.06419 32.9709 2.08106H11.0303Z" fill="#323C6B"/>
<path d="M32.9707 42.5135H11.0301C10.6949 42.5315 10.3596 42.4811 10.0445 42.3652C9.72944 42.2494 9.44129 42.0705 9.19763 41.8396C8.95396 41.6087 8.7599 41.3306 8.62728 41.0222C8.49467 40.7138 8.42627 40.3816 8.42627 40.0459C8.42627 39.7102 8.49467 39.3781 8.62728 39.0697C8.7599 38.7613 8.95396 38.4832 9.19763 38.2523C9.44129 38.0213 9.72944 37.8425 10.0445 37.7266C10.3596 37.6108 10.6949 37.5603 11.0301 37.5784H32.9707C33.3059 37.5603 33.6413 37.6108 33.9563 37.7266C34.2714 37.8425 34.5595 38.0213 34.8032 38.2523C35.0469 38.4832 35.2409 38.7613 35.3735 39.0697C35.5062 39.3781 35.5746 39.7102 35.5746 40.0459C35.5746 40.3816 35.5062 40.7138 35.3735 41.0222C35.2409 41.3306 35.0469 41.6087 34.8032 41.8396C34.5595 42.0705 34.2714 42.2494 33.9563 42.3652C33.6413 42.4811 33.3059 42.5315 32.9707 42.5135V42.5135ZM11.0301 38.173C10.773 38.1546 10.5147 38.1894 10.2716 38.2753C10.0285 38.3611 9.8056 38.496 9.61691 38.6718C9.42822 38.8475 9.27773 39.0602 9.17484 39.2966C9.07194 39.533 9.01884 39.7881 9.01884 40.0459C9.01884 40.3038 9.07194 40.5589 9.17484 40.7953C9.27773 41.0317 9.42822 41.2444 9.61691 41.4201C9.8056 41.5958 10.0285 41.7308 10.2716 41.8166C10.5147 41.9024 10.773 41.9373 11.0301 41.9189H32.9707C33.2279 41.9373 33.4861 41.9024 33.7292 41.8166C33.9724 41.7308 34.1952 41.5958 34.3839 41.4201C34.5726 41.2444 34.7231 41.0317 34.826 40.7953C34.9289 40.5589 34.982 40.3038 34.982 40.0459C34.982 39.7881 34.9289 39.533 34.826 39.2966C34.7231 39.0602 34.5726 38.8475 34.3839 38.6718C34.1952 38.496 33.9724 38.3611 33.7292 38.2753C33.4861 38.1894 33.2279 38.1546 32.9707 38.173H11.0301Z" fill="#323C6B"/>
</svg>
