<svg width="44" height="44" viewBox="0 0 44 44" fill="none" xmlns="http://www.w3.org/2000/svg">
<path d="M18.0457 43.1406H41.4219C42.3711 43.1406 43.1406 42.3711 43.1406 41.4219V8.67857L35.3203 0.859375H9.79688C8.84761 0.859375 8.07812 1.62886 8.07812 2.57812V41.4219C8.07812 42.3711 8.84761 43.1406 9.79688 43.1406H18.0457Z" fill="white"/>
<path d="M35.3203 0.959671V6.96094C35.3203 7.91021 36.0898 8.67969 37.0391 8.67969H43.0403L35.3203 0.959671Z" fill="#FEC96B"/>
<path d="M14.4296 7.37508C20.2243 7.37508 24.9218 12.0726 24.9218 17.8672C24.9218 23.6618 20.2243 28.3594 14.4296 28.3594C8.63493 28.3594 3.9375 23.6619 3.9375 17.8672H14.4297V7.37508H14.4296Z" fill="#A0E557"/>
<path d="M14.4297 17.8672V7.37508C17.327 7.37508 19.9501 8.54941 21.8488 10.4482L14.4297 17.8672Z" fill="#39DDD2"/>
<path d="M11.3515 4.29688V14.7891H0.859375C0.859375 8.99439 5.55689 4.29688 11.3515 4.29688Z" fill="#FEC96B"/>
<path d="M37.647 31.4187C38.5962 31.4187 39.3657 30.6492 39.3657 29.7C39.3657 28.7508 38.5962 27.9812 37.647 27.9812C36.6977 27.9812 35.9282 28.7508 35.9282 29.7C35.9282 30.6492 36.6977 31.4187 37.647 31.4187Z" fill="#39DDD2"/>
<path d="M29.1963 39.6945C30.1455 39.6945 30.915 38.925 30.915 37.9758C30.915 37.0265 30.1455 36.257 29.1963 36.257C28.247 36.257 27.4775 37.0265 27.4775 37.9758C27.4775 38.925 28.247 39.6945 29.1963 39.6945Z" fill="#FEC96B"/>
<path d="M22.4067 33.1375C23.356 33.1375 24.1255 32.368 24.1255 31.4187C24.1255 30.4695 23.356 29.7 22.4067 29.7C21.4575 29.7 20.688 30.4695 20.688 31.4187C20.688 32.368 21.4575 33.1375 22.4067 33.1375Z" fill="#A0E557"/>
<path d="M15.8042 39.698C16.7534 39.698 17.5229 38.9285 17.5229 37.9792C17.5229 37.03 16.7534 36.2605 15.8042 36.2605C14.855 36.2605 14.0854 37.03 14.0854 37.9792C14.0854 38.9285 14.855 39.698 15.8042 39.698Z" fill="#FF5D5D"/>
<path d="M43.7482 8.07091L35.9279 0.251711C35.7668 0.0905781 35.5482 0 35.3203 0H9.79688C8.3753 0 7.21875 1.15655 7.21875 2.57812V4.21644C2.99707 5.87245 0 9.98723 0 14.7891C0 15.2636 0.384828 15.6484 0.859375 15.6484H11.3516C11.8261 15.6484 12.2109 15.2636 12.2109 14.7891V4.29688C12.2109 3.82233 11.8261 3.4375 11.3516 3.4375C10.5233 3.4375 9.71584 3.52748 8.9375 3.69677V2.57812C8.9375 2.10427 9.32302 1.71875 9.79688 1.71875H34.4609V6.96094C34.4609 8.38252 35.6175 9.53906 37.0391 9.53906H42.2812V41.4219C42.2812 41.8957 41.8957 42.2812 41.4219 42.2812H9.79688C9.32302 42.2812 8.9375 41.8957 8.9375 41.4219V34.0599C8.9375 33.5853 8.55267 33.2005 8.07812 33.2005C7.60358 33.2005 7.21875 33.5853 7.21875 34.0599V41.4219C7.21875 42.8435 8.3753 44 9.79688 44H41.4219C42.8435 44 44 42.8435 44 41.4219V8.67857C44 8.45066 43.9094 8.23204 43.7482 8.07091ZM10.4922 13.9297H1.75673C2.1676 9.30213 5.86463 5.60519 10.4921 5.19432L10.4922 13.9297ZM36.1797 6.96094V2.93391L41.0668 7.82031H37.0391C36.5652 7.82031 36.1797 7.4348 36.1797 6.96094Z" fill="black"/>
<path d="M7.47055 30.3299C7.3107 30.4898 7.21875 30.7115 7.21875 30.9375C7.21875 31.1635 7.31062 31.3852 7.47055 31.545C7.63039 31.7049 7.85211 31.7969 8.07812 31.7969C8.30414 31.7969 8.52586 31.7049 8.68562 31.545C8.84555 31.3852 8.9375 31.1635 8.9375 30.9375C8.9375 30.7115 8.84555 30.4898 8.68562 30.3299C8.52586 30.17 8.30414 30.0781 8.07812 30.0781C7.85211 30.0781 7.63039 30.17 7.47055 30.3299Z" fill="black"/>
<path d="M25.7812 17.8672C25.7812 11.6079 20.6889 6.5157 14.4296 6.5157C13.9551 6.5157 13.5702 6.90053 13.5702 7.37508V17.0078H3.9375C3.46295 17.0078 3.07812 17.3926 3.07812 17.8672C3.07812 24.1264 8.17035 29.2188 14.4296 29.2188C20.6889 29.2188 25.7812 24.1264 25.7812 17.8672ZM20.603 10.4785L15.289 15.7925V8.27252C17.3008 8.4511 19.1365 9.25118 20.603 10.4785ZM4.83495 18.7266H14.4296C14.6668 18.7266 14.8815 18.6305 15.037 18.4751C15.0371 18.475 15.0372 18.475 15.0374 18.4748L21.8186 11.6937C23.2186 13.3666 24.0624 15.5202 24.0624 17.8672C24.0624 23.1787 19.7411 27.5 14.4296 27.5C9.40768 27.5 5.27091 23.6372 4.83495 18.7266Z" fill="black"/>
<path d="M24.9851 31.4191C24.9851 29.9975 23.8286 28.841 22.407 28.841C20.9854 28.841 19.8289 29.9975 19.8289 31.4191C19.8289 31.8043 19.9144 32.1697 20.0665 32.4982L16.913 35.6517C16.5771 35.491 16.2012 35.4008 15.8047 35.4008C14.3831 35.4008 13.2266 36.5574 13.2266 37.979C13.2266 39.4005 14.3831 40.5571 15.8047 40.5571C17.2263 40.5571 18.3828 39.4005 18.3828 37.979C18.3828 37.5805 18.2919 37.2029 18.1298 36.8657L21.2657 33.7299C21.61 33.9007 21.9974 33.9972 22.4072 33.9972C22.87 33.9972 23.3042 33.8741 23.68 33.6597L26.8751 36.8548C26.7108 37.1938 26.6185 37.574 26.6185 37.9754C26.6185 39.397 27.775 40.5536 29.1966 40.5536C30.6182 40.5536 31.7747 39.397 31.7747 37.9754C31.7747 37.5837 31.6865 37.2123 31.5295 36.8796L36.4344 31.9747C36.7961 32.1684 37.2091 32.2786 37.6473 32.2786C39.0688 32.2786 40.2254 31.122 40.2254 29.7004C40.2254 28.2789 39.0688 27.1223 37.6473 27.1223C36.2257 27.1223 35.0691 28.2789 35.0691 29.7004C35.0691 30.0567 35.1418 30.3963 35.2731 30.7052L30.3219 35.6563C29.9817 35.4906 29.5998 35.3973 29.1966 35.3973C28.8029 35.3973 28.4298 35.4863 28.0957 35.6447L24.8079 32.3569C24.9219 32.0661 24.9851 31.75 24.9851 31.4191ZM15.8046 38.8384C15.3307 38.8384 14.9452 38.4529 14.9452 37.979C14.9452 37.5052 15.3307 37.1197 15.8046 37.1197C16.0353 37.1197 16.2446 37.2115 16.3991 37.36C16.4026 37.3636 16.4056 37.3675 16.4091 37.371C16.4132 37.3752 16.4177 37.3786 16.4219 37.3826C16.5714 37.5372 16.664 37.7474 16.664 37.979C16.664 38.4528 16.2785 38.8384 15.8046 38.8384ZM22.407 32.2785C21.9331 32.2785 21.5476 31.893 21.5476 31.4191C21.5476 30.9452 21.9331 30.5597 22.407 30.5597C22.8809 30.5597 23.2664 30.9452 23.2664 31.4191C23.2664 31.893 22.8809 32.2785 22.407 32.2785ZM37.6471 28.841C38.1209 28.841 38.5065 29.2265 38.5065 29.7003C38.5065 30.1742 38.1209 30.5597 37.6471 30.5597C37.1732 30.5597 36.7877 30.1742 36.7877 29.7003C36.7877 29.2265 37.1733 28.841 37.6471 28.841ZM30.0558 37.9754C30.0558 38.4493 29.6703 38.8348 29.1964 38.8348C28.7226 38.8348 28.337 38.4493 28.337 37.9754C28.337 37.5016 28.7226 37.1161 29.1964 37.1161C29.6703 37.1161 30.0558 37.5016 30.0558 37.9754Z" fill="black"/>
<path d="M28.8159 21.9141H33.3516C33.8262 21.9141 34.211 21.5292 34.211 21.0547C34.211 20.5801 33.8262 20.1953 33.3516 20.1953H28.8159C28.3414 20.1953 27.9565 20.5801 27.9565 21.0547C27.9565 21.5292 28.3413 21.9141 28.8159 21.9141Z" fill="black"/>
<path d="M36.6566 20.4471C36.4967 20.607 36.4048 20.8287 36.4048 21.0547C36.4048 21.2807 36.4967 21.5024 36.6566 21.6622C36.8164 21.822 37.0373 21.9141 37.2642 21.9141C37.4902 21.9141 37.7119 21.8221 37.8717 21.6622C38.0315 21.5024 38.1235 21.2807 38.1235 21.0547C38.1235 20.8287 38.0316 20.607 37.8717 20.4471C37.7119 20.2873 37.4902 20.1953 37.2642 20.1953C37.0381 20.1953 36.8164 20.2872 36.6566 20.4471Z" fill="black"/>
<path d="M28.8159 13.6641H39.3135C39.7881 13.6641 40.1729 13.2792 40.1729 12.8047C40.1729 12.3301 39.7881 11.9453 39.3135 11.9453H28.8159C28.3414 11.9453 27.9565 12.3301 27.9565 12.8047C27.9565 13.2792 28.3413 13.6641 28.8159 13.6641Z" fill="black"/>
<path d="M28.8159 17.7891H39.3135C39.7881 17.7891 40.1729 17.4042 40.1729 16.9297C40.1729 16.4551 39.7881 16.0703 39.3135 16.0703H28.8159C28.3414 16.0703 27.9565 16.4551 27.9565 16.9297C27.9565 17.4042 28.3413 17.7891 28.8159 17.7891Z" fill="black"/>
</svg>
